<svg viewBox="0 0 24 24" fill="none" xmlns="http://www.w3.org/2000/svg">
<path d="M12 24C18.6274 24 24 18.6274 24 12C24 5.37258 18.6274 0 12 0C5.37258 0 0 5.37258 0 12C0 18.6274 5.37258 24 12 24Z" fill="#C0662D"/>
<path fill-rule="evenodd" clip-rule="evenodd" d="M6.475 17.7L9.4 17.05L11.025 18.35H12.975L14.6 17.05L17.525 17.7L18.5 15.1L17.525 12.175L18.5 7.95L18.0558 6.61728L17.85 6L17.2427 6.23358L13.625 7.625H10.375L6.7573 6.23358L6.15 6L5.94424 6.61728L5.5 7.95L6.475 12.175L5.5 15.1L6.475 17.7ZM16.8943 12.0173L17.8255 7.98205L17.4485 6.85086L16.1734 7.34125L12.975 9.9L14.925 11.525L16.8943 12.0173ZM7.1057 12.0173L9.075 11.525L10.7 9.9L7.62382 7.26327L6.55154 6.85086L6.17448 7.98205L7.1057 12.0173ZM9.83333 12.5L10.7 14.45L8.09999 13.67L9.83333 12.5ZM11.025 17.05H12.975V16.725C12.975 16.366 12.684 16.075 12.325 16.075H11.675C11.316 16.075 11.025 16.366 11.025 16.725V17.05ZM14.1667 12.5L13.3 14.45L15.9 13.67L14.1667 12.5Z" fill="white"/>
</svg>
