<svg viewBox="0 0 384 175" fill="none" xmlns="http://www.w3.org/2000/svg">
<path d="M78.4551 36.5086C69.2891 37.9758 60.7509 42.0206 55.0169 47.5724C54.0124 48.5637 52.9242 49.3965 52.5893 49.3965C51.4174 49.3965 47.6506 47.3741 46.0601 45.9465C45.1812 45.1137 43.8837 43.4879 43.1722 42.3379C41.6236 39.681 39.9913 38.6896 37.2708 38.6896C35.4711 38.6896 35.0525 38.8482 33.6714 40.1965C30.5323 43.1706 29.3604 50.3086 31.202 55.4241C32.1646 58.2396 34.2155 61.3724 36.2245 63.1568C37.4801 64.2672 41.8747 67.0034 42.9629 67.3206C43.2141 67.4 43.0885 68.7879 42.67 70.8103C42.2933 72.6741 41.8747 76.8379 41.7492 80.05L41.4981 85.9189L36.8523 90.3603C33.504 93.5724 31.6205 95.7534 30.1138 98.1724C26.6399 103.803 24.5054 110.941 24.4635 116.81C24.4635 121.45 27.6025 125.059 31.9554 125.455C35.9733 125.812 38.7357 124.147 41.4143 119.824C43.2559 116.81 45.2649 114.788 45.5579 115.66C45.6416 115.978 46.3113 119.229 47.0646 122.957C47.7761 126.645 48.6969 131.047 49.1155 132.672L49.827 135.647L47.6087 137.947C43.8419 141.833 41.6236 146.988 41.6236 151.786C41.6236 153.571 41.8329 154.284 42.4607 154.879C43.2559 155.633 43.8419 155.672 60.3742 155.672C76.4042 155.672 77.5343 155.633 78.1621 154.959C78.7899 154.324 78.8736 153.095 78.8736 146.195V138.145L80.0455 138.383C85.9469 139.612 89.3789 139.612 95.3222 138.383L96.4523 138.145V146.234C96.4523 153.61 96.536 154.403 97.2056 154.998C97.9171 155.593 99.7587 155.672 114.994 155.672C131.484 155.672 132.07 155.633 132.865 154.879C133.493 154.284 133.702 153.571 133.702 151.786C133.702 146.988 131.442 141.793 127.717 137.986L125.499 135.726L126.671 130.729C127.299 127.993 128.219 123.512 128.722 120.776C129.224 118.04 129.768 115.66 129.935 115.502C130.312 115.105 133.367 118.634 134.539 120.776C137.846 126.922 146.886 127.081 149.858 121.053C151.072 118.555 151.155 115.621 150.193 110.862C148.56 102.653 145.212 96.7844 138.474 90.3603L133.828 85.9189L133.577 80.05C133.451 76.8379 133.033 72.6741 132.656 70.85C132.279 69.0258 132.028 67.5189 132.112 67.4793C132.196 67.4396 133.367 66.8844 134.707 66.25C136.088 65.6155 138.222 64.1482 139.562 62.8793C145.338 57.4068 146.928 49.3965 143.622 42.4965C142.324 39.8 140.608 38.6896 137.804 38.6896C135.418 38.6896 133.912 39.7603 132.112 42.7741C131.4 43.9241 130.145 45.4706 129.266 46.1844C127.633 47.5724 123.95 49.3965 122.82 49.3965C122.444 49.3965 121.313 48.5637 120.309 47.5724C114.491 41.9413 105.953 37.9362 96.6615 36.5086C92.1413 35.7948 82.8079 35.7948 78.4551 36.5086ZM97.2475 42.1396C110.013 44.5586 119.807 52.212 124.453 63.3948C126.922 69.3034 127.843 74.4982 127.843 82.6275V88.3379L129.015 89.3689C129.684 89.9637 131.358 91.3517 132.74 92.5017C139.687 98.1724 144.71 107.65 144.752 115.383C144.794 118.714 144.752 118.952 143.705 119.665C142.031 120.855 140.859 120.141 138.725 116.731C137.637 114.986 135.418 112.448 133.2 110.347C130.061 107.372 129.308 106.897 128.136 106.897C125.792 106.897 125.457 107.61 123.825 116.453C123.03 120.895 121.69 127.121 120.895 130.293C120.1 133.465 119.514 136.519 119.639 137.153C119.765 137.748 120.937 139.215 122.402 140.564C125.08 143.062 126.922 146.195 127.299 148.971L127.55 150.517L114.826 150.438L102.103 150.319L101.977 141.634C101.893 135.607 101.726 132.752 101.391 132.355C100.345 131.165 99.2565 131.205 95.6152 132.434C92.4761 133.505 91.5554 133.664 87.6629 133.664C83.8124 133.624 82.8079 133.505 79.7107 132.434C76.1113 131.165 74.9812 131.165 73.9348 132.355C73.6 132.752 73.4326 135.607 73.3489 141.634L73.2233 150.319L60.4997 150.438L47.7761 150.517L48.0273 148.971C48.4039 146.155 50.2455 143.062 53.0079 140.484C56.2306 137.51 56.2725 137.312 54.0961 128.707C53.2172 125.336 51.9615 119.348 51.2919 115.462C49.9107 107.69 49.534 106.897 47.1902 106.897C46.0183 106.897 45.2649 107.372 42.1259 110.347C39.8239 112.528 37.7312 114.947 36.643 116.731C34.5503 120.141 33.2947 120.855 31.6205 119.665C30.5742 118.952 30.5323 118.714 30.5742 115.383C30.616 107.65 35.6385 98.1724 42.5863 92.5017C43.9674 91.3517 45.6416 89.9637 46.3113 89.3689L47.4832 88.3379V82.6275C47.4832 74.4982 48.4039 69.3034 50.8733 63.3948C56.0632 50.9034 67.573 42.9327 82.4312 41.4655C86.6166 41.0689 93.1877 41.3465 97.2475 42.1396ZM42.5863 50.4275C43.5489 51.2206 45.4323 52.3706 46.7716 53.0051C48.111 53.6793 49.1573 54.3137 49.0736 54.4724C46.6042 59.1517 45.3905 61.4517 45.3068 61.7689C45.0556 62.4431 41.6655 60.5793 39.6983 58.6758C37.1034 56.1379 36.057 53.2431 36.2663 49.1982C36.35 47.4534 36.6848 45.6293 36.9778 45.1137C37.4801 44.2413 37.5219 44.281 39.1542 46.581C40.075 47.9293 41.6236 49.6344 42.5863 50.4275ZM139.353 49.9913C139.353 53.0844 139.185 53.8379 138.222 55.5431C136.381 58.9137 130.563 63.2758 130.019 61.6896C129.894 61.3724 129.015 59.5879 128.01 57.7241C127.047 55.9 126.252 54.3534 126.294 54.3137C126.336 54.3137 127.55 53.6793 129.015 52.9655C132.028 51.4586 135.293 48.5637 136.883 45.9862L138.013 44.162L138.683 45.2724C139.143 46.1051 139.353 47.4534 139.353 49.9913Z" fill="white"/>
<path d="M65.1037 71.881C59.6627 74.5775 61.4624 82.0327 67.5312 82.0327C71.8003 82.0327 74.4371 77.75 72.4281 74.062C71.0469 71.5638 67.7405 70.5724 65.1037 71.881Z" fill="white"/>
<path d="M105.409 71.762C100.052 74.062 101.851 82.0327 107.711 82.0327C110.808 82.0327 113.11 80.1293 113.445 77.2741C113.989 73.3086 109.301 70.0965 105.409 71.762Z" fill="white"/>
<path d="M77.8273 87.9414C76.6554 88.5758 76.3624 89.0517 76.3624 90.4793C76.3624 92.1052 78.3296 94.9603 80.4223 96.3086C85.0262 99.3224 90.8857 99.2034 95.2804 95.9914C97.8335 94.1672 99.5077 91.1138 98.8798 89.4086C98.3776 87.981 96.7034 87.2276 95.3641 87.8224C94.8619 88.0207 93.8992 88.9724 93.2714 89.8845C91.1787 92.7793 87.956 93.731 84.8588 92.3827C84.0636 92.0258 83.1009 91.2724 82.7242 90.7172C81.5523 89.0517 79.7944 87.4655 79.2085 87.4655C78.9155 87.4655 78.2877 87.7034 77.8273 87.9414Z" fill="white"/>
<path d="M179.928 81V59.22H172.08V56.232H190.836V59.22H183.024V81H179.928ZM195.553 81V56.232H198.649V81H195.553ZM220.902 80.82C220.158 80.964 219.222 81.072 218.094 81.144C216.99 81.24 215.958 81.288 214.998 81.288C212.022 81.288 209.85 80.964 208.482 80.316C207.114 79.668 206.19 78.492 205.71 76.788C205.254 75.06 205.026 72.336 205.026 68.616C205.026 64.92 205.254 62.208 205.71 60.48C206.19 58.752 207.114 57.564 208.482 56.916C209.85 56.268 212.022 55.944 214.998 55.944C215.982 55.944 217.014 55.992 218.094 56.088C219.174 56.184 220.062 56.316 220.758 56.484V59.184C218.958 58.944 217.302 58.824 215.79 58.824C213.27 58.824 211.506 59.016 210.498 59.4C209.514 59.784 208.866 60.612 208.554 61.884C208.242 63.156 208.086 65.4 208.086 68.616C208.086 71.832 208.242 74.076 208.554 75.348C208.866 76.62 209.514 77.448 210.498 77.832C211.506 78.216 213.27 78.408 215.79 78.408C217.638 78.408 219.342 78.288 220.902 78.048V80.82ZM242.545 81L234.121 69.84H229.657V81H226.561V56.232H229.657V66.96H234.121L242.581 56.232H246.037L236.605 68.22L246.145 81H242.545ZM250.713 81V56.232H266.841V59.112H253.809V67.068H265.113V69.948H253.809V78.12H266.841V81H250.713ZM277.768 81V59.22H269.92V56.232H288.676V59.22H280.864V81H277.768ZM197.028 138V118.524H196.884L188.388 138H186.12L177.66 118.524H177.516V138H174.6V113.232H178.776L187.236 132.492H187.416L195.876 113.232H200.052V138H197.028ZM216.584 138.288C213.296 138.288 210.968 137.964 209.6 137.316C208.232 136.668 207.356 135.54 206.972 133.932C206.612 132.3 206.432 129.528 206.432 125.616C206.432 121.704 206.612 118.944 206.972 117.336C207.356 115.704 208.232 114.564 209.6 113.916C210.968 113.268 213.296 112.944 216.584 112.944C219.848 112.944 222.164 113.268 223.532 113.916C224.924 114.564 225.8 115.704 226.16 117.336C226.544 118.944 226.736 121.704 226.736 125.616C226.736 129.528 226.544 132.3 226.16 133.932C225.8 135.54 224.924 136.668 223.532 137.316C222.164 137.964 219.848 138.288 216.584 138.288ZM216.584 135.408C219.032 135.408 220.688 135.252 221.552 134.94C222.416 134.628 222.98 133.848 223.244 132.6C223.508 131.352 223.64 129.024 223.64 125.616C223.64 122.208 223.508 119.88 223.244 118.632C222.98 117.384 222.416 116.604 221.552 116.292C220.688 115.98 219.032 115.824 216.584 115.824C214.136 115.824 212.468 115.98 211.58 116.292C210.716 116.604 210.152 117.384 209.888 118.632C209.624 119.88 209.492 122.208 209.492 125.616C209.492 129.024 209.624 131.352 209.888 132.6C210.152 133.848 210.716 134.628 211.58 134.94C212.468 135.252 214.136 135.408 216.584 135.408ZM249.3 138L236.232 119.064H236.088V138H233.1V113.232H236.268L249.156 131.736H249.3V113.232H252.252V138H249.3ZM267.711 138.288C266.391 138.288 264.915 138.24 263.283 138.144C261.675 138.048 260.247 137.928 258.999 137.784V134.94C262.119 135.252 264.723 135.408 266.811 135.408C268.107 135.408 269.127 135.36 269.871 135.264C270.639 135.144 271.287 134.94 271.815 134.652C272.295 134.364 272.607 133.944 272.751 133.392C272.895 132.816 272.967 132.06 272.967 131.124C272.967 129.996 272.907 129.204 272.787 128.748C272.667 128.268 272.379 127.92 271.923 127.704C271.491 127.488 270.735 127.332 269.655 127.236L263.535 126.552C262.047 126.384 260.919 126.036 260.151 125.508C259.407 124.956 258.903 124.248 258.639 123.384C258.399 122.496 258.279 121.344 258.279 119.928C258.279 117.96 258.615 116.472 259.287 115.464C259.983 114.456 260.943 113.784 262.167 113.448C263.415 113.112 265.083 112.944 267.171 112.944C268.563 112.944 269.979 113.004 271.419 113.124C272.859 113.244 273.999 113.388 274.839 113.556V116.292C273.927 116.148 272.799 116.04 271.455 115.968C270.111 115.872 268.863 115.824 267.711 115.824C266.367 115.824 265.287 115.884 264.471 116.004C263.655 116.124 263.019 116.328 262.563 116.616C262.059 116.904 261.735 117.288 261.591 117.768C261.447 118.248 261.375 118.932 261.375 119.82C261.375 120.804 261.447 121.524 261.591 121.98C261.735 122.412 262.011 122.736 262.419 122.952C262.827 123.144 263.499 123.288 264.435 123.384L270.483 124.068C271.923 124.212 273.039 124.464 273.831 124.824C274.623 125.184 275.199 125.832 275.559 126.768C275.895 127.632 276.063 129.012 276.063 130.908C276.063 133.092 275.727 134.724 275.055 135.804C274.383 136.86 273.483 137.544 272.355 137.856C271.227 138.144 269.679 138.288 267.711 138.288ZM287.436 138V116.22H279.588V113.232H298.344V116.22H290.532V138H287.436ZM303.061 138V113.232H319.189V116.112H306.157V124.068H317.461V126.948H306.157V135.12H319.189V138H303.061ZM340.124 138L336.272 128.28H335.66H327.884V138H324.788V113.232H336.164C338.132 113.232 339.62 113.544 340.628 114.168C341.636 114.792 342.296 115.632 342.608 116.688C342.92 117.744 343.076 119.1 343.076 120.756C343.076 122.46 342.824 123.948 342.32 125.22C341.816 126.468 340.784 127.32 339.224 127.776L343.436 138H340.124ZM334.868 125.4C336.404 125.4 337.532 125.244 338.252 124.932C338.996 124.596 339.464 124.116 339.656 123.492C339.872 122.868 339.98 121.956 339.98 120.756C339.98 119.532 339.884 118.608 339.691 117.984C339.5 117.36 339.056 116.892 338.36 116.58C337.688 116.268 336.608 116.112 335.12 116.112H327.884V125.4H334.868Z" fill="white"/>
<path d="M179.928 81H178.428V82.5H179.928V81ZM179.928 59.22H181.428V57.72H179.928V59.22ZM172.08 59.22H170.58V60.72H172.08V59.22ZM172.08 56.232V54.732H170.58V56.232H172.08ZM190.836 56.232H192.336V54.732H190.836V56.232ZM190.836 59.22V60.72H192.336V59.22H190.836ZM183.024 59.22V57.72H181.524V59.22H183.024ZM183.024 81V82.5H184.524V81H183.024ZM181.428 81V59.22H178.428V81H181.428ZM179.928 57.72H172.08V60.72H179.928V57.72ZM173.58 59.22V56.232H170.58V59.22H173.58ZM172.08 57.732H190.836V54.732H172.08V57.732ZM189.336 56.232V59.22H192.336V56.232H189.336ZM190.836 57.72H183.024V60.72H190.836V57.72ZM181.524 59.22V81H184.524V59.22H181.524ZM183.024 79.5H179.928V82.5H183.024V79.5ZM195.553 81H194.053V82.5H195.553V81ZM195.553 56.232V54.732H194.053V56.232H195.553ZM198.649 56.232H200.149V54.732H198.649V56.232ZM198.649 81V82.5H200.149V81H198.649ZM197.053 81V56.232H194.053V81H197.053ZM195.553 57.732H198.649V54.732H195.553V57.732ZM197.149 56.232V81H200.149V56.232H197.149ZM198.649 79.5H195.553V82.5H198.649V79.5ZM220.902 80.82L221.187 82.2927L222.402 82.0575V80.82H220.902ZM218.094 81.144L217.998 79.647L217.981 79.6481L217.964 79.6496L218.094 81.144ZM208.482 80.316L209.124 78.9604L209.124 78.9604L208.482 80.316ZM205.71 76.788L204.26 77.1707L204.263 77.1827L204.266 77.1947L205.71 76.788ZM205.71 60.48L204.265 60.0785L204.262 60.0879L204.26 60.0973L205.71 60.48ZM208.482 56.916L209.124 58.2716L209.124 58.2716L208.482 56.916ZM218.094 56.088L218.227 54.5939L218.227 54.5939L218.094 56.088ZM220.758 56.484H222.258V55.303L221.11 55.0259L220.758 56.484ZM220.758 59.184L220.56 60.6708L222.258 60.8973V59.184H220.758ZM210.498 59.4L209.964 57.9982L209.953 58.0026L210.498 59.4ZM208.554 61.884L210.011 62.2413L210.011 62.2413L208.554 61.884ZM208.554 75.348L210.011 74.9907L210.011 74.9907L208.554 75.348ZM210.498 77.832L209.953 79.2294L209.964 79.2337L210.498 77.832ZM220.902 78.048H222.402V76.2996L220.674 76.5654L220.902 78.048ZM220.617 79.3473C219.958 79.4749 219.09 79.5773 217.998 79.647L218.189 82.641C219.353 82.5667 220.358 82.4531 221.187 82.2927L220.617 79.3473ZM217.964 79.6496C216.897 79.7424 215.909 79.788 214.998 79.788V82.788C216.007 82.788 217.083 82.7376 218.224 82.6384L217.964 79.6496ZM214.998 79.788C212.07 79.788 210.178 79.4596 209.124 78.9604L207.84 81.6716C209.522 82.4684 211.974 82.788 214.998 82.788V79.788ZM209.124 78.9604C208.216 78.5301 207.538 77.7461 207.154 76.3813L204.266 77.1947C204.842 79.2379 206.012 80.8059 207.84 81.6716L209.124 78.9604ZM207.16 76.4053C206.757 74.8753 206.526 72.3146 206.526 68.616H203.526C203.526 72.3574 203.751 75.2447 204.26 77.1707L207.16 76.4053ZM206.526 68.616C206.526 64.9424 206.756 62.3932 207.16 60.8627L204.26 60.0973C203.751 62.0228 203.526 64.8976 203.526 68.616H206.526ZM207.155 60.8815C207.542 59.4877 208.223 58.6984 209.124 58.2716L207.84 55.5604C206.005 56.4296 204.837 58.0163 204.265 60.0785L207.155 60.8815ZM209.124 58.2716C210.178 57.7724 212.07 57.444 214.998 57.444V54.444C211.974 54.444 209.522 54.7636 207.84 55.5604L209.124 58.2716ZM214.998 57.444C215.933 57.444 216.921 57.4896 217.961 57.5821L218.227 54.5939C217.107 54.4944 216.03 54.444 214.998 54.444V57.444ZM217.961 57.5821C219.001 57.6745 219.809 57.7979 220.406 57.9421L221.11 55.0259C220.315 54.8341 219.347 54.6935 218.227 54.5939L217.961 57.5821ZM219.258 56.484V59.184H222.258V56.484H219.258ZM220.956 57.6972C219.103 57.4501 217.38 57.324 215.79 57.324V60.324C217.224 60.324 218.813 60.4379 220.56 60.6708L220.956 57.6972ZM215.79 57.324C213.267 57.324 211.254 57.5067 209.964 57.9983L211.032 60.8017C211.758 60.5253 213.273 60.324 215.79 60.324V57.324ZM209.953 58.0026C208.403 58.6073 207.494 59.9084 207.097 61.5267L210.011 62.2413C210.238 61.3156 210.625 60.9607 211.043 60.7974L209.953 58.0026ZM207.097 61.5267C206.737 62.9941 206.586 65.4036 206.586 68.616H209.586C209.586 65.3964 209.747 63.3179 210.011 62.2413L207.097 61.5267ZM206.586 68.616C206.586 71.8284 206.737 74.2379 207.097 75.7053L210.011 74.9907C209.747 73.9141 209.586 71.8356 209.586 68.616H206.586ZM207.097 75.7053C207.494 77.3236 208.403 78.6247 209.953 79.2294L211.043 76.4346C210.625 76.2713 210.238 75.9164 210.011 74.9907L207.097 75.7053ZM209.964 79.2337C211.254 79.7253 213.267 79.908 215.79 79.908V76.908C213.273 76.908 211.758 76.7067 211.032 76.4303L209.964 79.2337ZM215.79 79.908C217.702 79.908 219.483 79.7839 221.13 79.5306L220.674 76.5654C219.201 76.7921 217.574 76.908 215.79 76.908V79.908ZM219.402 78.048V80.82H222.402V78.048H219.402ZM242.545 81L241.348 81.9037L241.798 82.5H242.545V81ZM234.121 69.84L235.318 68.9363L234.868 68.34H234.121V69.84ZM229.657 69.84V68.34H228.157V69.84H229.657ZM229.657 81V82.5H231.157V81H229.657ZM226.561 81H225.061V82.5H226.561V81ZM226.561 56.232V54.732H225.061V56.232H226.561ZM229.657 56.232H231.157V54.732H229.657V56.232ZM229.657 66.96H228.157V68.46H229.657V66.96ZM234.121 66.96V68.46H234.848L235.299 67.8888L234.121 66.96ZM242.581 56.232V54.732H241.854L241.403 55.3032L242.581 56.232ZM246.037 56.232L247.216 57.1595L249.126 54.732H246.037V56.232ZM236.605 68.22L235.426 67.2925L234.715 68.196L235.403 69.1173L236.605 68.22ZM246.145 81V82.5H249.136L247.347 80.1027L246.145 81ZM243.742 80.0963L235.318 68.9363L232.924 70.7437L241.348 81.9037L243.742 80.0963ZM234.121 68.34H229.657V71.34H234.121V68.34ZM228.157 69.84V81H231.157V69.84H228.157ZM229.657 79.5H226.561V82.5H229.657V79.5ZM228.061 81V56.232H225.061V81H228.061ZM226.561 57.732H229.657V54.732H226.561V57.732ZM228.157 56.232V66.96H231.157V56.232H228.157ZM229.657 68.46H234.121V65.46H229.657V68.46ZM235.299 67.8888L243.759 57.1608L241.403 55.3032L232.943 66.0312L235.299 67.8888ZM242.581 57.732H246.037V54.732H242.581V57.732ZM244.858 55.3045L235.426 67.2925L237.784 69.1475L247.216 57.1595L244.858 55.3045ZM235.403 69.1173L244.943 81.8973L247.347 80.1027L237.807 67.3227L235.403 69.1173ZM246.145 79.5H242.545V82.5H246.145V79.5ZM250.713 81H249.213V82.5H250.713V81ZM250.713 56.232V54.732H249.213V56.232H250.713ZM266.841 56.232H268.341V54.732H266.841V56.232ZM266.841 59.112V60.612H268.341V59.112H266.841ZM253.809 59.112V57.612H252.309V59.112H253.809ZM253.809 67.068H252.309V68.568H253.809V67.068ZM265.113 67.068H266.613V65.568H265.113V67.068ZM265.113 69.948V71.448H266.613V69.948H265.113ZM253.809 69.948V68.448H252.309V69.948H253.809ZM253.809 78.12H252.309V79.62H253.809V78.12ZM266.841 78.12H268.341V76.62H266.841V78.12ZM266.841 81V82.5H268.341V81H266.841ZM252.213 81V56.232H249.213V81H252.213ZM250.713 57.732H266.841V54.732H250.713V57.732ZM265.341 56.232V59.112H268.341V56.232H265.341ZM266.841 57.612H253.809V60.612H266.841V57.612ZM252.309 59.112V67.068H255.309V59.112H252.309ZM253.809 68.568H265.113V65.568H253.809V68.568ZM263.613 67.068V69.948H266.613V67.068H263.613ZM265.113 68.448H253.809V71.448H265.113V68.448ZM252.309 69.948V78.12H255.309V69.948H252.309ZM253.809 79.62H266.841V76.62H253.809V79.62ZM265.341 78.12V81H268.341V78.12H265.341ZM266.841 79.5H250.713V82.5H266.841V79.5ZM277.768 81H276.268V82.5H277.768V81ZM277.768 59.22H279.268V57.72H277.768V59.22ZM269.92 59.22H268.42V60.72H269.92V59.22ZM269.92 56.232V54.732H268.42V56.232H269.92ZM288.676 56.232H290.176V54.732H288.676V56.232ZM288.676 59.22V60.72H290.176V59.22H288.676ZM280.864 59.22V57.72H279.364V59.22H280.864ZM280.864 81V82.5H282.364V81H280.864ZM279.268 81V59.22H276.268V81H279.268ZM277.768 57.72H269.92V60.72H277.768V57.72ZM271.42 59.22V56.232H268.42V59.22H271.42ZM269.92 57.732H288.676V54.732H269.92V57.732ZM287.176 56.232V59.22H290.176V56.232H287.176ZM288.676 57.72H280.864V60.72H288.676V57.72ZM279.364 59.22V81H282.364V59.22H279.364ZM280.864 79.5H277.768V82.5H280.864V79.5ZM197.028 138H195.528V139.5H197.028V138ZM197.028 118.524H198.528V117.024H197.028V118.524ZM196.884 118.524V117.024H195.902L195.509 117.924L196.884 118.524ZM188.388 138V139.5H189.37L189.763 138.6L188.388 138ZM186.12 138L184.744 138.598L185.136 139.5H186.12V138ZM177.66 118.524L179.036 117.926L178.644 117.024H177.66V118.524ZM177.516 118.524V117.024H176.016V118.524H177.516ZM177.516 138V139.5H179.016V138H177.516ZM174.6 138H173.1V139.5H174.6V138ZM174.6 113.232V111.732H173.1V113.232H174.6ZM178.776 113.232L180.149 112.629L179.755 111.732H178.776V113.232ZM187.236 132.492L185.863 133.095L186.257 133.992H187.236V132.492ZM187.416 132.492V133.992H188.395L188.789 133.095L187.416 132.492ZM195.876 113.232V111.732H194.897L194.503 112.629L195.876 113.232ZM200.052 113.232H201.552V111.732H200.052V113.232ZM200.052 138V139.5H201.552V138H200.052ZM198.528 138V118.524H195.528V138H198.528ZM197.028 117.024H196.884V120.024H197.028V117.024ZM195.509 117.924L187.013 137.4L189.763 138.6L198.259 119.124L195.509 117.924ZM188.388 136.5H186.12V139.5H188.388V136.5ZM187.496 137.402L179.036 117.926L176.284 119.122L184.744 138.598L187.496 137.402ZM177.66 117.024H177.516V120.024H177.66V117.024ZM176.016 118.524V138H179.016V118.524H176.016ZM177.516 136.5H174.6V139.5H177.516V136.5ZM176.1 138V113.232H173.1V138H176.1ZM174.6 114.732H178.776V111.732H174.6V114.732ZM177.403 113.835L185.863 133.095L188.609 131.889L180.149 112.629L177.403 113.835ZM187.236 133.992H187.416V130.992H187.236V133.992ZM188.789 133.095L197.249 113.835L194.503 112.629L186.043 131.889L188.789 133.095ZM195.876 114.732H200.052V111.732H195.876V114.732ZM198.552 113.232V138H201.552V113.232H198.552ZM200.052 136.5H197.028V139.5H200.052V136.5ZM209.6 137.316L208.958 138.672L208.958 138.672L209.6 137.316ZM206.972 133.932L205.507 134.255L205.51 134.268L205.513 134.28L206.972 133.932ZM206.972 117.336L205.512 116.992L205.51 117L205.508 117.008L206.972 117.336ZM209.6 113.916L208.958 112.56L208.958 112.56L209.6 113.916ZM223.532 113.916L222.89 115.272L222.899 115.276L223.532 113.916ZM226.16 117.336L224.695 117.659L224.698 117.672L224.701 117.684L226.16 117.336ZM226.16 133.932L224.7 133.588L224.698 133.596L224.696 133.604L226.16 133.932ZM223.532 137.316L222.899 135.956L222.89 135.96L223.532 137.316ZM221.552 134.94L221.043 133.529L221.043 133.529L221.552 134.94ZM223.244 118.632L224.712 118.322L224.712 118.322L223.244 118.632ZM221.552 116.292L221.043 117.703L221.043 117.703L221.552 116.292ZM211.58 116.292L211.083 114.877L211.071 114.881L211.58 116.292ZM209.888 118.632L208.421 118.322L208.421 118.322L209.888 118.632ZM211.58 134.94L211.071 136.351L211.083 136.355L211.58 134.94ZM216.584 136.788C213.317 136.788 211.284 136.454 210.242 135.96L208.958 138.672C210.652 139.474 213.275 139.788 216.584 139.788V136.788ZM210.242 135.96C209.327 135.527 208.721 134.796 208.431 133.584L205.513 134.28C205.992 136.284 207.138 137.809 208.958 138.672L210.242 135.96ZM208.437 133.609C208.115 132.152 207.932 129.525 207.932 125.616H204.932C204.932 129.531 205.109 132.448 205.507 134.255L208.437 133.609ZM207.932 125.616C207.932 121.705 208.116 119.094 208.436 117.664L205.508 117.008C205.109 118.794 204.932 121.703 204.932 125.616H207.932ZM208.432 117.68C208.725 116.437 209.335 115.702 210.242 115.272L208.958 112.56C207.13 113.426 205.988 114.971 205.512 116.992L208.432 117.68ZM210.242 115.272C211.284 114.778 213.317 114.444 216.584 114.444V111.444C213.275 111.444 210.652 111.758 208.958 112.56L210.242 115.272ZM216.584 114.444C219.825 114.444 221.847 114.778 222.89 115.272L224.174 112.56C222.481 111.758 219.871 111.444 216.584 111.444V114.444ZM222.899 115.276C223.826 115.707 224.426 116.437 224.695 117.659L227.625 117.013C227.175 114.971 226.022 113.421 224.165 112.556L222.899 115.276ZM224.701 117.684C225.04 119.104 225.236 121.706 225.236 125.616H228.236C228.236 121.702 228.048 118.784 227.619 116.988L224.701 117.684ZM225.236 125.616C225.236 129.524 225.04 132.142 224.7 133.588L227.62 134.276C228.048 132.458 228.236 129.532 228.236 125.616H225.236ZM224.696 133.604C224.429 134.796 223.835 135.521 222.899 135.956L224.165 138.676C226.014 137.815 227.171 136.284 227.624 134.26L224.696 133.604ZM222.89 135.96C221.847 136.454 219.825 136.788 216.584 136.788V139.788C219.871 139.788 222.481 139.474 224.174 138.672L222.89 135.96ZM216.584 136.908C219.008 136.908 220.917 136.764 222.062 136.351L221.043 133.529C220.459 133.74 219.056 133.908 216.584 133.908V136.908ZM222.062 136.351C223.592 135.798 224.386 134.448 224.712 132.91L221.777 132.29C221.574 133.248 221.24 133.458 221.043 133.529L222.062 136.351ZM224.712 132.91C225.013 131.488 225.14 129.011 225.14 125.616H222.14C222.14 129.037 222.004 131.216 221.777 132.29L224.712 132.91ZM225.14 125.616C225.14 122.221 225.013 119.744 224.712 118.322L221.777 118.942C222.004 120.016 222.14 122.195 222.14 125.616H225.14ZM224.712 118.322C224.386 116.784 223.592 115.434 222.062 114.881L221.043 117.703C221.24 117.774 221.574 117.984 221.777 118.942L224.712 118.322ZM222.062 114.881C220.917 114.468 219.008 114.324 216.584 114.324V117.324C219.056 117.324 220.459 117.492 221.043 117.703L222.062 114.881ZM216.584 114.324C214.154 114.324 212.243 114.469 211.083 114.877L212.077 117.707C212.693 117.491 214.118 117.324 216.584 117.324V114.324ZM211.071 114.881C209.54 115.434 208.746 116.784 208.421 118.322L211.356 118.942C211.558 117.984 211.892 117.774 212.09 117.703L211.071 114.881ZM208.421 118.322C208.12 119.744 207.992 122.221 207.992 125.616H210.992C210.992 122.195 211.129 120.016 211.356 118.942L208.421 118.322ZM207.992 125.616C207.992 129.011 208.12 131.488 208.421 132.91L211.356 132.29C211.129 131.216 210.992 129.037 210.992 125.616H207.992ZM208.421 132.91C208.746 134.448 209.54 135.798 211.071 136.351L212.09 133.529C211.892 133.458 211.558 133.248 211.356 132.29L208.421 132.91ZM211.083 136.355C212.243 136.763 214.154 136.908 216.584 136.908V133.908C214.118 133.908 212.693 133.741 212.077 133.525L211.083 136.355ZM249.3 138L248.065 138.852L248.513 139.5H249.3V138ZM236.232 119.064L237.467 118.212L237.019 117.564H236.232V119.064ZM236.088 119.064V117.564H234.588V119.064H236.088ZM236.088 138V139.5H237.588V138H236.088ZM233.1 138H231.6V139.5H233.1V138ZM233.1 113.232V111.732H231.6V113.232H233.1ZM236.268 113.232L237.499 112.375L237.051 111.732H236.268V113.232ZM249.156 131.736L247.925 132.593L248.373 133.236H249.156V131.736ZM249.3 131.736V133.236H250.8V131.736H249.3ZM249.3 113.232V111.732H247.8V113.232H249.3ZM252.252 113.232H253.752V111.732H252.252V113.232ZM252.252 138V139.5H253.752V138H252.252ZM250.535 137.148L237.467 118.212L234.997 119.916L248.065 138.852L250.535 137.148ZM236.232 117.564H236.088V120.564H236.232V117.564ZM234.588 119.064V138H237.588V119.064H234.588ZM236.088 136.5H233.1V139.5H236.088V136.5ZM234.6 138V113.232H231.6V138H234.6ZM233.1 114.732H236.268V111.732H233.1V114.732ZM235.037 114.089L247.925 132.593L250.387 130.879L237.499 112.375L235.037 114.089ZM249.156 133.236H249.3V130.236H249.156V133.236ZM250.8 131.736V113.232H247.8V131.736H250.8ZM249.3 114.732H252.252V111.732H249.3V114.732ZM250.752 113.232V138H253.752V113.232H250.752ZM252.252 136.5H249.3V139.5H252.252V136.5ZM263.283 138.144L263.194 139.641L263.195 139.641L263.283 138.144ZM258.999 137.784H257.499V139.121L258.827 139.274L258.999 137.784ZM258.999 134.94L259.148 133.447L257.499 133.283V134.94H258.999ZM269.871 135.264L270.063 136.752L270.083 136.749L270.103 136.746L269.871 135.264ZM271.815 134.652L272.533 135.969L272.561 135.954L272.587 135.938L271.815 134.652ZM272.751 133.392L274.203 133.771L274.205 133.763L274.206 133.756L272.751 133.392ZM272.787 128.748L271.332 129.112L271.334 129.121L271.337 129.13L272.787 128.748ZM271.923 127.704L271.252 129.046L271.267 129.053L271.281 129.06L271.923 127.704ZM269.655 127.236L269.489 128.727L269.505 128.729L269.522 128.73L269.655 127.236ZM263.535 126.552L263.367 128.043L263.369 128.043L263.535 126.552ZM260.151 125.508L259.257 126.713L259.279 126.729L259.301 126.744L260.151 125.508ZM258.639 123.384L257.191 123.775L257.198 123.799L257.205 123.822L258.639 123.384ZM259.287 115.464L258.053 114.612L258.046 114.622L258.039 114.632L259.287 115.464ZM262.167 113.448L261.777 112L261.77 112.002L262.167 113.448ZM274.839 113.556H276.339V112.326L275.133 112.085L274.839 113.556ZM274.839 116.292L274.605 117.774L276.339 118.047V116.292H274.839ZM271.455 115.968L271.348 117.464L271.362 117.465L271.375 117.466L271.455 115.968ZM264.471 116.004L264.689 117.488L264.689 117.488L264.471 116.004ZM262.563 116.616L263.307 117.918L263.336 117.902L263.364 117.884L262.563 116.616ZM261.591 121.98L260.161 122.432L260.164 122.443L260.168 122.454L261.591 121.98ZM262.419 122.952L261.717 124.278L261.749 124.294L261.78 124.309L262.419 122.952ZM264.435 123.384L264.604 121.894L264.596 121.893L264.588 121.892L264.435 123.384ZM270.483 124.068L270.315 125.558L270.324 125.56L270.334 125.561L270.483 124.068ZM273.831 124.824L274.452 123.458L274.452 123.458L273.831 124.824ZM275.559 126.768L274.159 127.306L274.161 127.312L275.559 126.768ZM275.055 135.804L276.321 136.609L276.325 136.603L276.329 136.596L275.055 135.804ZM272.355 137.856L272.726 139.309L272.741 139.306L272.755 139.302L272.355 137.856ZM267.711 136.788C266.426 136.788 264.981 136.741 263.371 136.647L263.195 139.641C264.85 139.739 266.356 139.788 267.711 139.788V136.788ZM263.373 136.647C261.785 136.552 260.385 136.434 259.171 136.294L258.827 139.274C260.109 139.422 261.565 139.544 263.194 139.641L263.373 136.647ZM260.499 137.784V134.94H257.499V137.784H260.499ZM258.85 136.433C261.998 136.747 264.655 136.908 266.811 136.908V133.908C264.791 133.908 262.241 133.757 259.148 133.447L258.85 136.433ZM266.811 136.908C268.132 136.908 269.226 136.86 270.063 136.752L269.679 133.776C269.028 133.86 268.082 133.908 266.811 133.908V136.908ZM270.103 136.746C270.994 136.607 271.817 136.36 272.533 135.969L271.097 133.335C270.757 133.52 270.284 133.681 269.64 133.782L270.103 136.746ZM272.587 135.938C273.411 135.444 273.962 134.694 274.203 133.771L271.3 133.013C271.253 133.194 271.18 133.284 271.043 133.366L272.587 135.938ZM274.206 133.756C274.392 133.013 274.467 132.121 274.467 131.124H271.467C271.467 131.999 271.398 132.619 271.296 133.028L274.206 133.756ZM274.467 131.124C274.467 129.996 274.412 129.029 274.238 128.366L271.337 129.13C271.402 129.379 271.467 129.996 271.467 131.124H274.467ZM274.242 128.384C274.011 127.459 273.418 126.752 272.565 126.348L271.281 129.06C271.309 129.073 271.323 129.083 271.328 129.086C271.332 129.089 271.33 129.088 271.326 129.083C271.321 129.078 271.32 129.075 271.32 129.076C271.321 129.077 271.326 129.088 271.332 129.112L274.242 128.384ZM272.594 126.362C271.887 126.009 270.88 125.839 269.788 125.742L269.522 128.73C270.59 128.825 271.095 128.967 271.252 129.046L272.594 126.362ZM269.822 125.745L263.702 125.061L263.369 128.043L269.489 128.727L269.822 125.745ZM263.703 125.061C262.327 124.906 261.479 124.601 261.001 124.272L259.301 126.744C260.359 127.471 261.767 127.862 263.367 128.043L263.703 125.061ZM261.045 124.303C260.551 123.937 260.241 123.495 260.074 122.946L257.205 123.822C257.565 125.001 258.263 125.975 259.257 126.713L261.045 124.303ZM260.087 122.993C259.895 122.281 259.779 121.275 259.779 119.928H256.779C256.779 121.413 256.903 122.711 257.191 123.775L260.087 122.993ZM259.779 119.928C259.779 118.088 260.101 116.948 260.535 116.296L258.039 114.632C257.129 115.996 256.779 117.832 256.779 119.928H259.779ZM260.522 116.316C261.009 115.61 261.667 115.141 262.564 114.894L261.77 112.002C260.219 112.427 258.957 113.302 258.053 114.612L260.522 116.316ZM262.557 114.896C263.625 114.609 265.145 114.444 267.171 114.444V111.444C265.022 111.444 263.206 111.615 261.777 112L262.557 114.896ZM267.171 114.444C268.52 114.444 269.894 114.502 271.295 114.619L271.544 111.629C270.064 111.506 268.606 111.444 267.171 111.444V114.444ZM271.295 114.619C272.711 114.737 273.786 114.875 274.545 115.027L275.133 112.085C274.212 111.901 273.008 111.751 271.544 111.629L271.295 114.619ZM273.339 113.556V116.292H276.339V113.556H273.339ZM275.073 114.81C274.093 114.656 272.91 114.544 271.535 114.47L271.375 117.466C272.688 117.536 273.761 117.64 274.605 117.774L275.073 114.81ZM271.562 114.472C270.188 114.374 268.904 114.324 267.711 114.324V117.324C268.822 117.324 270.034 117.37 271.348 117.464L271.562 114.472ZM267.711 114.324C266.333 114.324 265.172 114.385 264.253 114.52L264.689 117.488C265.403 117.383 266.401 117.324 267.711 117.324V114.324ZM264.253 114.52C263.329 114.656 262.464 114.905 261.762 115.348L263.364 117.884C263.575 117.751 263.982 117.592 264.689 117.488L264.253 114.52ZM261.819 115.314C261.038 115.76 260.426 116.43 260.154 117.337L263.028 118.199C263.044 118.146 263.081 118.048 263.307 117.918L261.819 115.314ZM260.154 117.337C259.948 118.025 259.875 118.88 259.875 119.82H262.875C262.875 118.984 262.946 118.471 263.028 118.199L260.154 117.337ZM259.875 119.82C259.875 120.831 259.944 121.745 260.161 122.432L263.022 121.528C262.951 121.303 262.875 120.777 262.875 119.82H259.875ZM260.168 122.454C260.436 123.258 260.974 123.884 261.717 124.278L263.121 121.626C263.07 121.6 263.053 121.58 263.048 121.574C263.043 121.569 263.03 121.552 263.014 121.506L260.168 122.454ZM261.78 124.309C262.432 124.616 263.32 124.777 264.282 124.876L264.588 121.892C263.678 121.799 263.222 121.672 263.058 121.595L261.78 124.309ZM264.267 124.874L270.315 125.558L270.652 122.578L264.604 121.894L264.267 124.874ZM270.334 125.561C271.704 125.698 272.634 125.927 273.21 126.19L274.452 123.458C273.444 123.001 272.142 122.726 270.632 122.575L270.334 125.561ZM273.21 126.19C273.589 126.362 273.917 126.677 274.159 127.306L276.959 126.23C276.481 124.987 275.657 124.006 274.452 123.458L273.21 126.19ZM274.161 127.312C274.391 127.901 274.563 129.045 274.563 130.908H277.563C277.563 128.979 277.4 127.363 276.957 126.224L274.161 127.312ZM274.563 130.908C274.563 132.989 274.234 134.285 273.782 135.012L276.329 136.596C277.22 135.163 277.563 133.195 277.563 130.908H274.563ZM273.79 134.999C273.302 135.765 272.699 136.205 271.955 136.41L272.755 139.302C274.267 138.883 275.464 137.955 276.321 136.609L273.79 134.999ZM271.984 136.403C271.032 136.646 269.627 136.788 267.711 136.788V139.788C269.731 139.788 271.422 139.642 272.726 139.309L271.984 136.403ZM287.436 138H285.936V139.5H287.436V138ZM287.436 116.22H288.936V114.72H287.436V116.22ZM279.588 116.22H278.088V117.72H279.588V116.22ZM279.588 113.232V111.732H278.088V113.232H279.588ZM298.344 113.232H299.844V111.732H298.344V113.232ZM298.344 116.22V117.72H299.844V116.22H298.344ZM290.532 116.22V114.72H289.032V116.22H290.532ZM290.532 138V139.5H292.032V138H290.532ZM288.936 138V116.22H285.936V138H288.936ZM287.436 114.72H279.588V117.72H287.436V114.72ZM281.088 116.22V113.232H278.088V116.22H281.088ZM279.588 114.732H298.344V111.732H279.588V114.732ZM296.844 113.232V116.22H299.844V113.232H296.844ZM298.344 114.72H290.532V117.72H298.344V114.72ZM289.032 116.22V138H292.032V116.22H289.032ZM290.532 136.5H287.436V139.5H290.532V136.5ZM303.061 138H301.561V139.5H303.061V138ZM303.061 113.232V111.732H301.561V113.232H303.061ZM319.189 113.232H320.689V111.732H319.189V113.232ZM319.189 116.112V117.612H320.689V116.112H319.189ZM306.157 116.112V114.612H304.657V116.112H306.157ZM306.157 124.068H304.657V125.568H306.157V124.068ZM317.461 124.068H318.961V122.568H317.461V124.068ZM317.461 126.948V128.448H318.961V126.948H317.461ZM306.157 126.948V125.448H304.657V126.948H306.157ZM306.157 135.12H304.657V136.62H306.157V135.12ZM319.189 135.12H320.689V133.62H319.189V135.12ZM319.189 138V139.5H320.689V138H319.189ZM304.561 138V113.232H301.561V138H304.561ZM303.061 114.732H319.189V111.732H303.061V114.732ZM317.689 113.232V116.112H320.689V113.232H317.689ZM319.189 114.612H306.157V117.612H319.189V114.612ZM304.657 116.112V124.068H307.657V116.112H304.657ZM306.157 125.568H317.461V122.568H306.157V125.568ZM315.961 124.068V126.948H318.961V124.068H315.961ZM317.461 125.448H306.157V128.448H317.461V125.448ZM304.657 126.948V135.12H307.657V126.948H304.657ZM306.157 136.62H319.189V133.62H306.157V136.62ZM317.689 135.12V138H320.689V135.12H317.689ZM319.189 136.5H303.061V139.5H319.189V136.5ZM340.124 138L338.729 138.553L339.104 139.5H340.124V138ZM336.272 128.28L337.666 127.727L337.291 126.78H336.272V128.28ZM327.884 128.28V126.78H326.384V128.28H327.884ZM327.884 138V139.5H329.384V138H327.884ZM324.788 138H323.288V139.5H324.788V138ZM324.788 113.232V111.732H323.288V113.232H324.788ZM340.628 114.168L341.417 112.893L341.417 112.893L340.628 114.168ZM342.608 116.688L341.169 117.113L341.169 117.113L342.608 116.688ZM342.32 125.22L343.71 125.782L343.714 125.773L342.32 125.22ZM339.224 127.776L338.803 126.336L337.201 126.804L337.837 128.347L339.224 127.776ZM343.436 138V139.5H345.676L344.822 137.429L343.436 138ZM338.252 124.932L338.848 126.308L338.858 126.304L338.869 126.299L338.252 124.932ZM339.656 123.492L338.238 123.001L338.229 123.026L338.222 123.051L339.656 123.492ZM339.691 117.984L338.258 118.425L338.258 118.425L339.691 117.984ZM338.36 116.58L337.728 117.941L337.737 117.945L337.746 117.949L338.36 116.58ZM327.884 116.112V114.612H326.384V116.112H327.884ZM327.884 125.4H326.384V126.9H327.884V125.4ZM341.518 137.447L337.666 127.727L334.877 128.833L338.729 138.553L341.518 137.447ZM336.272 126.78H335.66V129.78H336.272V126.78ZM335.66 126.78H327.884V129.78H335.66V126.78ZM326.384 128.28V138H329.384V128.28H326.384ZM327.884 136.5H324.788V139.5H327.884V136.5ZM326.288 138V113.232H323.288V138H326.288ZM324.788 114.732H336.164V111.732H324.788V114.732ZM336.164 114.732C338.017 114.732 339.176 115.034 339.838 115.443L341.417 112.893C340.063 112.054 338.246 111.732 336.164 111.732V114.732ZM339.838 115.443C340.559 115.889 340.97 116.439 341.169 117.113L344.046 116.263C343.621 114.825 342.712 113.695 341.417 112.893L339.838 115.443ZM341.169 117.113C341.425 117.98 341.576 119.179 341.576 120.756H344.576C344.576 119.021 344.414 117.508 344.046 116.263L341.169 117.113ZM341.576 120.756C341.576 122.316 341.344 123.609 340.925 124.667L343.714 125.773C344.303 124.287 344.576 122.604 344.576 120.756H341.576ZM340.929 124.658C340.633 125.391 340.024 125.979 338.803 126.336L339.644 129.216C341.543 128.661 342.998 127.545 343.71 125.782L340.929 124.658ZM337.837 128.347L342.049 138.571L344.822 137.429L340.61 127.205L337.837 128.347ZM343.436 136.5H340.124V139.5H343.436V136.5ZM334.868 126.9C336.45 126.9 337.834 126.748 338.848 126.308L337.655 123.556C337.229 123.74 336.357 123.9 334.868 123.9V126.9ZM338.869 126.299C339.899 125.834 340.74 125.068 341.089 123.933L338.222 123.051C338.187 123.164 338.092 123.358 337.634 123.565L338.869 126.299ZM341.073 123.983C341.371 123.121 341.48 122.01 341.48 120.756H338.48C338.48 121.902 338.372 122.615 338.238 123.001L341.073 123.983ZM341.48 120.756C341.48 119.489 341.384 118.385 341.125 117.543L338.258 118.425C338.383 118.831 338.48 119.575 338.48 120.756H341.48ZM341.125 117.543C340.784 116.435 339.99 115.667 338.973 115.211L337.746 117.949C338.121 118.117 338.215 118.285 338.258 118.425L341.125 117.543ZM338.991 115.219C338.007 114.763 336.649 114.612 335.12 114.612V117.612C336.566 117.612 337.368 117.773 337.728 117.941L338.991 115.219ZM335.12 114.612H327.884V117.612H335.12V114.612ZM326.384 116.112V125.4H329.384V116.112H326.384ZM327.884 126.9H334.868V123.9H327.884V126.9Z" fill="white"/>
</svg>
